<svg width="293" height="271" viewBox="0 0 293 271" fill="none" xmlns="http://www.w3.org/2000/svg">
<rect x="2.5" y="2.5" width="288" height="266" fill="url(#paint0_linear_53_116)" stroke="#FF0014" stroke-width="5"/>
<path d="M41.0312 106.125V163H28.3359V106.125H41.0312ZM57.3984 106.125H67.9453L81.6172 146.789L95.25 106.125H105.797L85.875 163H77.3203L57.3984 106.125ZM51.3047 106.125H62.0469L64.0391 148.273V163H51.3047V106.125ZM101.148 106.125H111.93V163H99.1562V148.273L101.148 106.125ZM145.719 116.945L131.031 163H117.438L138.492 106.125H147.086L145.719 116.945ZM157.906 163L143.18 116.945L141.656 106.125H150.367L171.5 163H157.906ZM157.281 141.828V151.672H127.633V141.828H157.281ZM221.266 132.961V155.891C220.328 156.958 218.896 158.104 216.969 159.328C215.068 160.552 212.633 161.607 209.664 162.492C206.695 163.352 203.154 163.781 199.039 163.781C195.315 163.781 191.93 163.182 188.883 161.984C185.836 160.76 183.219 158.977 181.031 156.633C178.844 154.263 177.151 151.372 175.953 147.961C174.781 144.549 174.195 140.643 174.195 136.242V132.883C174.195 128.482 174.781 124.576 175.953 121.164C177.125 117.753 178.779 114.875 180.914 112.531C183.049 110.161 185.589 108.365 188.531 107.141C191.474 105.917 194.729 105.305 198.297 105.305C203.375 105.305 207.529 106.125 210.758 107.766C213.987 109.38 216.435 111.62 218.102 114.484C219.794 117.349 220.836 120.643 221.227 124.367H208.961C208.701 122.466 208.18 120.826 207.398 119.445C206.643 118.065 205.562 117.01 204.156 116.281C202.75 115.526 200.927 115.148 198.688 115.148C196.891 115.148 195.263 115.526 193.805 116.281C192.372 117.01 191.161 118.117 190.172 119.602C189.182 121.086 188.427 122.935 187.906 125.148C187.385 127.336 187.125 129.888 187.125 132.805V136.242C187.125 139.159 187.385 141.724 187.906 143.938C188.453 146.151 189.247 148 190.289 149.484C191.331 150.943 192.646 152.049 194.234 152.805C195.849 153.56 197.724 153.938 199.859 153.938C201.526 153.938 202.932 153.807 204.078 153.547C205.224 153.26 206.161 152.909 206.891 152.492C207.62 152.049 208.167 151.646 208.531 151.281V141.828H198.414V132.961H221.266ZM268.648 153.156V163H238.375V153.156H268.648ZM242.711 106.125V163H229.977V106.125H242.711ZM264.742 129.016V138.547H238.375V129.016H264.742ZM268.688 106.125V116.008H238.375V106.125H268.688Z" fill="black"/>
<path d="M41.0312 106.125H46.0312V101.125H41.0312V106.125ZM41.0312 163V168H46.0312V163H41.0312ZM28.3359 163H23.3359V168H28.3359V163ZM28.3359 106.125V101.125H23.3359V106.125H28.3359ZM36.0312 106.125V163H46.0312V106.125H36.0312ZM41.0312 158H28.3359V168H41.0312V158ZM33.3359 163V106.125H23.3359V163H33.3359ZM28.3359 111.125H41.0312V101.125H28.3359V111.125ZM57.3984 106.125V101.125H50.3492L52.6796 107.778L57.3984 106.125ZM67.9453 106.125L72.6846 104.532L71.5393 101.125H67.9453V106.125ZM81.6172 146.789L76.8779 148.382L81.624 162.499L86.3579 148.378L81.6172 146.789ZM95.25 106.125V101.125H91.6528L90.5093 104.536L95.25 106.125ZM105.797 106.125L110.516 107.778L112.846 101.125H105.797V106.125ZM85.875 163V168H89.4215L90.5939 164.653L85.875 163ZM77.3203 163L72.6014 164.653L73.7738 168H77.3203V163ZM51.3047 106.125V101.125H46.3047V106.125H51.3047ZM62.0469 106.125L67.0413 105.889L66.8161 101.125H62.0469V106.125ZM64.0391 148.273H69.0391V148.155L69.0335 148.037L64.0391 148.273ZM64.0391 163V168H69.0391V163H64.0391ZM51.3047 163H46.3047V168H51.3047V163ZM101.148 106.125V101.125H96.3792L96.154 105.889L101.148 106.125ZM111.93 106.125H116.93V101.125H111.93V106.125ZM111.93 163V168H116.93V163H111.93ZM99.1562 163H94.1562V168H99.1562V163ZM99.1562 148.273L94.1618 148.037L94.1562 148.155V148.273H99.1562ZM57.3984 111.125H67.9453V101.125H57.3984V111.125ZM63.206 107.718L76.8779 148.382L86.3565 145.196L72.6846 104.532L63.206 107.718ZM86.3579 148.378L99.9907 107.714L90.5093 104.536L76.8765 145.2L86.3579 148.378ZM95.25 111.125H105.797V101.125H95.25V111.125ZM101.078 104.472L81.1561 161.347L90.5939 164.653L110.516 107.778L101.078 104.472ZM85.875 158H77.3203V168H85.875V158ZM82.0392 161.347L62.1173 104.472L52.6796 107.778L72.6014 164.653L82.0392 161.347ZM51.3047 111.125H62.0469V101.125H51.3047V111.125ZM57.0525 106.361L59.0446 148.51L69.0335 148.037L67.0413 105.889L57.0525 106.361ZM59.0391 148.273V163H69.0391V148.273H59.0391ZM64.0391 158H51.3047V168H64.0391V158ZM56.3047 163V106.125H46.3047V163H56.3047ZM101.148 111.125H111.93V101.125H101.148V111.125ZM106.93 106.125V163H116.93V106.125H106.93ZM111.93 158H99.1562V168H111.93V158ZM104.156 163V148.273H94.1562V163H104.156ZM104.151 148.51L106.143 106.361L96.154 105.889L94.1618 148.037L104.151 148.51ZM145.719 116.945L150.482 118.464L150.622 118.027L150.679 117.572L145.719 116.945ZM131.031 163V168H134.685L135.795 164.519L131.031 163ZM117.438 163L112.748 161.264L110.255 168H117.438V163ZM138.492 106.125V101.125H135.012L133.803 104.389L138.492 106.125ZM147.086 106.125L152.046 106.752L152.757 101.125H147.086V106.125ZM157.906 163L153.144 164.523L154.256 168H157.906V163ZM143.18 116.945L138.229 117.642L138.288 118.063L138.417 118.468L143.18 116.945ZM141.656 106.125V101.125H135.903L136.705 106.822L141.656 106.125ZM150.367 106.125L155.054 104.384L153.843 101.125H150.367V106.125ZM171.5 163V168H178.692L176.187 161.259L171.5 163ZM157.281 141.828H162.281V136.828H157.281V141.828ZM157.281 151.672V156.672H162.281V151.672H157.281ZM127.633 151.672H122.633V156.672H127.633V151.672ZM127.633 141.828V136.828H122.633V141.828H127.633ZM140.955 115.426L126.268 161.481L135.795 164.519L150.482 118.464L140.955 115.426ZM131.031 158H117.438V168H131.031V158ZM122.127 164.736L143.181 107.861L133.803 104.389L112.748 161.264L122.127 164.736ZM138.492 111.125H147.086V101.125H138.492V111.125ZM142.125 105.498L140.758 116.319L150.679 117.572L152.046 106.752L142.125 105.498ZM162.669 161.477L147.942 115.422L138.417 118.468L153.144 164.523L162.669 161.477ZM148.131 116.248L146.607 105.428L136.705 106.822L138.229 117.642L148.131 116.248ZM141.656 111.125H150.367V101.125H141.656V111.125ZM145.68 107.866L166.813 164.741L176.187 161.259L155.054 104.384L145.68 107.866ZM171.5 158H157.906V168H171.5V158ZM152.281 141.828V151.672H162.281V141.828H152.281ZM157.281 146.672H127.633V156.672H157.281V146.672ZM132.633 151.672V141.828H122.633V151.672H132.633ZM127.633 146.828H157.281V136.828H127.633V146.828ZM221.266 132.961H226.266V127.961H221.266V132.961ZM221.266 155.891L225.023 159.19L226.266 157.774V155.891H221.266ZM216.969 159.328L214.288 155.107L214.275 155.116L214.262 155.124L216.969 159.328ZM209.664 162.492L211.054 167.295L211.074 167.289L211.093 167.284L209.664 162.492ZM188.883 161.984L187.019 166.624L187.036 166.631L187.053 166.638L188.883 161.984ZM181.031 156.633L177.357 160.024L177.367 160.034L177.376 160.044L181.031 156.633ZM175.953 147.961L171.224 149.585L171.23 149.601L171.236 149.618L175.953 147.961ZM175.953 121.164L171.224 119.54L175.953 121.164ZM180.914 112.531L184.61 115.899L184.619 115.889L184.629 115.878L180.914 112.531ZM188.531 107.141L186.611 102.524L188.531 107.141ZM210.758 107.766L208.493 112.223L208.507 112.231L208.522 112.238L210.758 107.766ZM218.102 114.484L213.78 116.999L213.788 117.013L213.797 117.028L218.102 114.484ZM221.227 124.367V129.367H226.778L226.199 123.846L221.227 124.367ZM208.961 124.367L204.007 125.046L204.599 129.367H208.961V124.367ZM207.398 119.445L203.012 121.845L203.029 121.877L203.047 121.908L207.398 119.445ZM204.156 116.281L201.791 120.686L201.823 120.703L201.855 120.72L204.156 116.281ZM193.805 116.281L196.073 120.737L196.089 120.729L196.104 120.721L193.805 116.281ZM190.172 119.602L186.012 116.828L190.172 119.602ZM187.906 125.148L192.77 126.307L192.773 126.294L187.906 125.148ZM187.906 143.938L183.039 145.083L183.046 145.11L183.052 145.137L187.906 143.938ZM190.289 149.484L186.196 152.357L186.208 152.374L186.22 152.391L190.289 149.484ZM194.234 152.805L192.088 157.32L192.102 157.327L192.116 157.334L194.234 152.805ZM204.078 153.547L205.186 158.423L205.239 158.411L205.291 158.398L204.078 153.547ZM206.891 152.492L209.371 156.833L209.429 156.801L209.486 156.766L206.891 152.492ZM208.531 151.281L212.067 154.817L213.531 153.352V151.281H208.531ZM208.531 141.828H213.531V136.828H208.531V141.828ZM198.414 141.828H193.414V146.828H198.414V141.828ZM198.414 132.961V127.961H193.414V132.961H198.414ZM216.266 132.961V155.891H226.266V132.961H216.266ZM217.508 152.592C217.015 153.154 216.026 154.004 214.288 155.107L219.649 163.549C221.766 162.205 223.641 160.763 225.023 159.19L217.508 152.592ZM214.262 155.124C212.873 156.019 210.907 156.904 208.235 157.701L211.093 167.284C214.359 166.31 217.263 165.086 219.675 163.532L214.262 155.124ZM208.274 157.689C205.878 158.383 202.829 158.781 199.039 158.781V168.781C203.479 168.781 207.513 168.32 211.054 167.295L208.274 157.689ZM199.039 158.781C195.856 158.781 193.102 158.271 190.712 157.331L187.053 166.638C190.757 168.094 194.774 168.781 199.039 168.781V158.781ZM190.747 157.345C188.363 156.387 186.362 155.016 184.687 153.221L177.376 160.044C180.076 162.937 183.309 165.134 187.019 166.624L190.747 157.345ZM184.705 153.241C183.033 151.43 181.67 149.15 180.671 146.304L171.236 149.618C172.632 153.594 174.654 157.096 177.357 160.024L184.705 153.241ZM180.682 146.337C179.724 143.548 179.195 140.208 179.195 136.242H169.195C169.195 141.079 169.838 145.551 171.224 149.585L180.682 146.337ZM179.195 136.242V132.883H169.195V136.242H179.195ZM179.195 132.883C179.195 128.917 179.724 125.577 180.682 122.788L171.224 119.54C169.838 123.574 169.195 128.046 169.195 132.883H179.195ZM180.682 122.788C181.662 119.934 182.993 117.673 184.61 115.899L177.218 109.164C174.564 112.077 172.588 115.571 171.224 119.54L180.682 122.788ZM184.629 115.878C186.268 114.059 188.194 112.696 190.451 111.757L186.611 102.524C182.983 104.033 179.831 106.264 177.2 109.184L184.629 115.878ZM190.451 111.757C192.717 110.815 195.31 110.305 198.297 110.305V100.305C194.149 100.305 190.231 101.018 186.611 102.524L190.451 111.757ZM198.297 110.305C202.885 110.305 206.19 111.053 208.493 112.223L213.023 103.308C208.867 101.197 203.865 100.305 198.297 100.305V110.305ZM208.522 112.238C210.961 113.457 212.647 115.051 213.78 116.999L222.423 111.97C220.223 108.188 217.013 105.303 212.994 103.293L208.522 112.238ZM213.797 117.028C215.081 119.201 215.929 121.789 216.254 124.889L226.199 123.846C225.743 119.497 224.508 115.497 222.406 111.941L213.797 117.028ZM221.227 119.367H208.961V129.367H221.227V119.367ZM213.915 123.689C213.586 121.288 212.901 119.016 211.75 116.982L203.047 121.908C203.458 122.635 203.815 123.644 204.007 125.046L213.915 123.689ZM211.785 117.045C210.549 114.787 208.74 113.026 206.458 111.842L201.855 120.72C202.385 120.995 202.737 121.343 203.012 121.845L211.785 117.045ZM206.522 111.876C204.154 110.605 201.439 110.148 198.688 110.148V120.148C200.416 120.148 201.346 120.447 201.791 120.686L206.522 111.876ZM198.688 110.148C196.167 110.148 193.74 110.684 191.505 111.841L196.104 120.721C196.787 120.368 197.614 120.148 198.688 120.148V110.148ZM191.536 111.825C189.258 112.985 187.424 114.71 186.012 116.828L194.332 122.375C194.899 121.524 195.487 121.036 196.073 120.737L191.536 111.825ZM186.012 116.828C184.614 118.924 183.661 121.361 183.039 124.003L192.773 126.294C193.193 124.508 193.75 123.248 194.332 122.375L186.012 116.828ZM183.042 123.99C182.409 126.65 182.125 129.607 182.125 132.805H192.125C192.125 130.17 192.362 128.022 192.77 126.307L183.042 123.99ZM182.125 132.805V136.242H192.125V132.805H182.125ZM182.125 136.242C182.125 139.442 182.409 142.406 183.039 145.083L192.773 142.792C192.362 141.042 192.125 138.876 192.125 136.242H182.125ZM183.052 145.137C183.711 147.802 184.721 150.255 186.196 152.357L194.382 146.612C193.773 145.745 193.196 144.5 192.76 142.738L183.052 145.137ZM186.22 152.391C187.746 154.526 189.717 156.193 192.088 157.32L196.381 148.289C195.575 147.906 194.916 147.359 194.358 146.578L186.22 152.391ZM192.116 157.334C194.512 158.454 197.135 158.938 199.859 158.938V148.938C198.313 148.938 197.186 148.665 196.353 148.276L192.116 157.334ZM199.859 158.938C201.757 158.938 203.561 158.792 205.186 158.423L202.97 148.671C202.304 148.823 201.295 148.938 199.859 148.938V158.938ZM205.291 158.398C206.716 158.041 208.12 157.548 209.371 156.833L204.41 148.151C204.203 148.269 203.732 148.479 202.865 148.696L205.291 158.398ZM209.486 156.766C210.365 156.232 211.296 155.588 212.067 154.817L204.996 147.746C205.035 147.706 205.01 147.737 204.878 147.835C204.752 147.928 204.563 148.056 204.296 148.218L209.486 156.766ZM213.531 151.281V141.828H203.531V151.281H213.531ZM208.531 136.828H198.414V146.828H208.531V136.828ZM203.414 141.828V132.961H193.414V141.828H203.414ZM198.414 137.961H221.266V127.961H198.414V137.961ZM268.648 153.156H273.648V148.156H268.648V153.156ZM268.648 163V168H273.648V163H268.648ZM238.375 163H233.375V168H238.375V163ZM238.375 153.156V148.156H233.375V153.156H238.375ZM242.711 106.125H247.711V101.125H242.711V106.125ZM242.711 163V168H247.711V163H242.711ZM229.977 163H224.977V168H229.977V163ZM229.977 106.125V101.125H224.977V106.125H229.977ZM264.742 129.016H269.742V124.016H264.742V129.016ZM264.742 138.547V143.547H269.742V138.547H264.742ZM238.375 138.547H233.375V143.547H238.375V138.547ZM238.375 129.016V124.016H233.375V129.016H238.375ZM268.688 106.125H273.688V101.125H268.688V106.125ZM268.688 116.008V121.008H273.688V116.008H268.688ZM238.375 116.008H233.375V121.008H238.375V116.008ZM238.375 106.125V101.125H233.375V106.125H238.375ZM263.648 153.156V163H273.648V153.156H263.648ZM268.648 158H238.375V168H268.648V158ZM243.375 163V153.156H233.375V163H243.375ZM238.375 158.156H268.648V148.156H238.375V158.156ZM237.711 106.125V163H247.711V106.125H237.711ZM242.711 158H229.977V168H242.711V158ZM234.977 163V106.125H224.977V163H234.977ZM229.977 111.125H242.711V101.125H229.977V111.125ZM259.742 129.016V138.547H269.742V129.016H259.742ZM264.742 133.547H238.375V143.547H264.742V133.547ZM243.375 138.547V129.016H233.375V138.547H243.375ZM238.375 134.016H264.742V124.016H238.375V134.016ZM263.688 106.125V116.008H273.688V106.125H263.688ZM268.688 111.008H238.375V121.008H268.688V111.008ZM243.375 116.008V106.125H233.375V116.008H243.375ZM238.375 111.125H268.688V101.125H238.375V111.125Z" fill="white"/>
<defs>
<linearGradient id="paint0_linear_53_116" x1="14" y1="12" x2="293" y2="282.5" gradientUnits="userSpaceOnUse">
<stop stop-color="#843AB2"/>
<stop offset="1" stop-color="#F64E57"/>
</linearGradient>
</defs>
</svg>
